<svg width="1600" height="203" viewBox="0 0 1600 203" fill="none" xmlns="http://www.w3.org/2000/svg">
<g clip-path="url(#clip0)">
<path d="M401.314 215.521C177.487 228.061 39.3445 206.117 0 159.094V0H1599C1617.07 71.318 1630.12 205.317 1567.86 184C1490.05 157.354 1241.54 135.583 1062.3 136.366C883.065 137.15 625.14 202.982 401.314 215.521Z" fill="white" fill-opacity="0.3"/>
<path d="M1068.96 201.945C812.961 217.945 181.961 46.9448 136.961 -13.0552C136.961 -13.0552 0.431396 -118.438 192.961 -154.055C884.965 -282.075 2426.96 -142.055 2426.96 -142.055C2447.63 -51.0552 2471.16 124.145 2399.96 96.9446C2310.96 62.9446 2044.96 30.9448 1839.96 31.9448C1634.96 32.9448 1324.96 185.945 1068.96 201.945Z" fill="white" fill-opacity="0.45"/>
</g>
<defs>
<clipPath id="clip0">
<rect width="1600" height="203" fill="white"/>
</clipPath>
</defs>
</svg>
